<svg t="1726130211480" class="icon" viewBox="0 0 1024 1024" version="1.1"
  xmlns="http://www.w3.org/2000/svg"
  xmlns:xlink="http://www.w3.org/1999/xlink" width="16" height="16">
  <defs>
    <style>
    .bg {
      fill: #007fff;
    }
    .line {
      fill: #fff;
    }
    </style>
  </defs>
  <path d="M1023.902757 512.000512c5.119033 317.380015-194.523235 517.022283-511.903251 511.90325-317.380015 2.559516-517.022283-194.523235-511.90325-511.90325C-5.022777 192.06098 194.619491-5.021771 511.999506 0.097262c317.380015-5.119033 517.022283 191.963719 511.903251 511.90325z" class="bg"></path>
  <path d="M1021.34324 565.750353C1005.986143 340.512923 852.415168 199.739529 614.380156 204.858562c-253.392109-5.119033-414.641633 153.570975-409.5226 409.5226-5.119033 238.035011 135.654361 391.605986 360.891792 406.963084 268.749206-15.357098 440.236795-186.844686 455.593892-455.593893z" class="bg"></path>
  <path d="M1016.224208 629.738259c-30.714195-138.213878-138.213878-222.677914-299.463402-220.118397-189.404203-2.559516-309.701466 117.737748-307.14195 307.14195-2.559516 158.690008 81.90452 268.749206 220.118398 299.463401 209.880333-35.833228 350.653726-176.606621 386.486954-386.486954z" class="bg"></path>
  <path d="M998.307594 703.964231c-33.273711-58.868874-94.702101-92.142585-179.166138-92.142585-127.975813-2.559516-207.320816 76.785488-204.7613 204.7613-2.559516 81.90452 33.273711 145.892426 92.142585 179.166137 140.773394-40.95226 250.832593-151.011459 291.784853-291.784852z" class="bg"></path>

  <path d="M747.475001 783.309235H276.524011c-33.273711 0-58.868874-25.595163-58.868874-58.868874v-409.5226c0-33.273711 25.595163-58.868874 58.868874-58.868874h470.95099c33.273711 0 58.868874 25.595163 58.868874 58.868874v409.5226c0 33.273711-25.595163 58.868874-58.868874 58.868874z m-470.95099-486.308088c-10.238065 0-20.47613 7.678549-20.47613 20.47613v409.5226c0 10.238065 7.678549 20.47613 20.47613 20.47613h470.95099c10.238065 0 20.47613-7.678549 20.47613-20.47613v-409.5226c0-10.238065-7.678549-20.47613-20.47613-20.47613H276.524011z" class="line"></path>
  <path d="M780.748713 427.536476h-537.498413c-10.238065 0-20.47613-7.678549-20.47613-20.47613 0-10.238065 7.678549-20.47613 20.47613-20.47613h537.498413c10.238065 0 20.47613 7.678549 20.47613 20.47613 0 10.238065-10.238065 20.47613-20.47613 20.47613zM483.844828 657.892938c-5.119033 0-10.238065-2.559516-12.797582-5.119032l-81.90452-81.90452c-7.678549-7.678549-7.678549-20.47613 0-28.154679 7.678549-7.678549 20.47613-7.678549 28.154679 0l69.106939 69.106939 122.85678-122.85678c7.678549-7.678549 20.47613-7.678549 28.154679 0 7.678549 7.678549 7.678549 20.47613 0 28.154678l-138.213878 138.213878c-5.119033 2.559516-10.238065 2.559516-15.357097 2.559516zM366.10708 335.393891c-10.238065 0-20.47613-7.678549-20.47613-20.47613v-76.785488c0-10.238065 7.678549-20.47613 20.47613-20.47613s20.47613 7.678549 20.47613 20.47613v76.785488c0 12.797581-10.238065 20.47613-20.47613 20.47613zM657.891933 335.393891c-10.238065 0-20.47613-7.678549-20.47613-20.47613v-76.785488c0-10.238065 7.678549-20.47613 20.47613-20.47613 10.238065 0 20.47613 7.678549 20.47613 20.47613v76.785488c-2.559516 12.797581-10.238065 20.47613-20.47613 20.47613z" class="line"></path>
</svg>